<?xml version="1.0" standalone="no"?>
<!DOCTYPE svg PUBLIC "-//W3C//DTD SVG 20010904//EN"
 "http://www.w3.org/TR/2001/REC-SVG-20010904/DTD/svg10.dtd">
<svg version="1.0" xmlns="http://www.w3.org/2000/svg"
 width="256.000000pt" height="256.000000pt" viewBox="0 0 256.000000 256.000000"
 preserveAspectRatio="xMidYMid meet">
<metadata>
Created by potrace 1.11, written by Peter Selinger 2001-2013
</metadata>
<g transform="translate(0.000000,256.000000) scale(0.100000,-0.100000)"
fill="#000000" stroke="none">
<path d="M960 2378 l0 -75 -82 -5 c-126 -7 -207 -59 -259 -166 -21 -43 -24
-64 -27 -229 l-4 -182 40 -3 40 -3 -64 -80 c-83 -103 -166 -269 -201 -400 -34
-132 -38 -330 -9 -445 83 -325 311 -560 634 -652 112 -32 323 -32 436 0 169
49 300 127 417 248 115 121 172 224 215 393 23 91 24 105 24 477 l0 384 -89 0
c-48 0 -112 -5 -141 -10 -29 -6 -55 -9 -56 -7 -2 1 -4 45 -5 97 -6 335 -225
618 -544 704 -33 9 -120 19 -192 23 l-133 6 0 -75z m173 -1253 c84 -22 145
-56 206 -116 63 -62 118 -169 128 -248 3 -28 9 -50 12 -48 51 28 113 50 157
54 l54 6 0 -185 0 -184 -28 -21 c-79 -59 -210 -107 -329 -122 -148 -19 -317
15 -449 90 -87 49 -87 48 -82 211 5 169 15 199 108 315 76 94 100 141 107 209
5 50 8 54 32 54 15 0 53 -7 84 -15z"/>
</g>
</svg>
